<mxfile host="Electron" modified="2023-04-12T09:57:25.660Z" agent="Mozilla/5.0 (Windows NT 10.0; Win64; x64) AppleWebKit/537.36 (KHTML, like Gecko) draw.io/21.1.2 Chrome/106.0.5249.199 Electron/21.4.3 Safari/537.36" etag="A81INPBTObc-NFenRovU" version="21.1.2" type="device">
  <diagram name="Page-1" id="Cua4vQGlo99FHH7aFQg-">
    <mxGraphModel dx="592" dy="356" grid="0" gridSize="10" guides="1" tooltips="1" connect="1" arrows="1" fold="1" page="1" pageScale="1" pageWidth="850" pageHeight="1100" background="none" math="0" shadow="0">
      <root>
        <mxCell id="0" />
        <mxCell id="1" parent="0" />
        <mxCell id="ilgEBAD7E1s25G6MxIeR-5" style="edgeStyle=orthogonalEdgeStyle;rounded=0;orthogonalLoop=1;jettySize=auto;html=1;entryX=0;entryY=0.5;entryDx=0;entryDy=0;" edge="1" parent="1" source="ilgEBAD7E1s25G6MxIeR-1" target="ilgEBAD7E1s25G6MxIeR-4">
          <mxGeometry relative="1" as="geometry" />
        </mxCell>
        <mxCell id="ilgEBAD7E1s25G6MxIeR-1" value="Gateway" style="rounded=1;whiteSpace=wrap;html=1;fontFamily=Helvetica;fillColor=#dae8fc;strokeColor=#6c8ebf;shadow=0;" vertex="1" parent="1">
          <mxGeometry x="360" y="280" width="80" height="40" as="geometry" />
        </mxCell>
        <mxCell id="ilgEBAD7E1s25G6MxIeR-2" value="" style="endArrow=classic;html=1;rounded=0;" edge="1" parent="1">
          <mxGeometry width="50" height="50" relative="1" as="geometry">
            <mxPoint x="200" y="300" as="sourcePoint" />
            <mxPoint x="360" y="300" as="targetPoint" />
          </mxGeometry>
        </mxCell>
        <mxCell id="ilgEBAD7E1s25G6MxIeR-3" value="localhost:8080/rental/api/v1/&lt;font color=&quot;#ea6b66&quot; style=&quot;font-size: 9px;&quot;&gt;rentals/2&lt;/font&gt;" style="text;html=1;strokeColor=none;fillColor=none;align=center;verticalAlign=middle;whiteSpace=wrap;rounded=0;fontFamily=Helvetica;fontSize=9;" vertex="1" parent="1">
          <mxGeometry x="180" y="270" width="200" height="30" as="geometry" />
        </mxCell>
        <mxCell id="ilgEBAD7E1s25G6MxIeR-4" value="Rental service" style="rounded=1;whiteSpace=wrap;html=1;fontFamily=Helvetica;strokeColor=#D1D5DB;fillColor=#FAFAFA;shadow=0;glass=0;" vertex="1" parent="1">
          <mxGeometry x="560" y="280" width="90" height="40" as="geometry" />
        </mxCell>
        <mxCell id="ilgEBAD7E1s25G6MxIeR-6" value="localhost:8082/&lt;font color=&quot;#ea6b66&quot; style=&quot;font-size: 9px;&quot;&gt;rentals/2&lt;/font&gt;" style="text;html=1;strokeColor=none;fillColor=none;align=center;verticalAlign=middle;whiteSpace=wrap;rounded=0;fontFamily=Helvetica;fontSize=9;" vertex="1" parent="1">
          <mxGeometry x="410" y="270" width="180" height="30" as="geometry" />
        </mxCell>
      </root>
    </mxGraphModel>
  </diagram>
</mxfile>
